<svg width="20" height="20" viewBox="0 0 20 20" fill="none" xmlns="http://www.w3.org/2000/svg">
    <path d="M11.517 18.334H8.484a.833.833 0 0 1-.814-.655l-.34-1.57a6.671 6.671 0 0 1-1.279-.74l-1.53.488a.834.834 0 0 1-.976-.377l-1.52-2.626a.839.839 0 0 1 .161-1.033l1.188-1.083a6.749 6.749 0 0 1 0-1.477l-1.188-1.08a.838.838 0 0 1-.16-1.034l1.516-2.628a.833.833 0 0 1 .975-.377l1.531.487c.203-.15.415-.29.633-.416a7.01 7.01 0 0 1 .65-.322l.34-1.568a.833.833 0 0 1 .813-.656h3.033a.834.834 0 0 1 .814.656l.343 1.569a6.827 6.827 0 0 1 1.279.74l1.532-.488a.833.833 0 0 1 .974.377l1.517 2.628a.84.84 0 0 1-.161 1.032l-1.188 1.083c.054.491.054.986 0 1.477l1.188 1.084a.84.84 0 0 1 .16 1.032l-1.516 2.628a.834.834 0 0 1-.975.377l-1.531-.488a6.65 6.65 0 0 1-1.278.739l-.345 1.566a.834.834 0 0 1-.813.655zM9.997 6.667a3.333 3.333 0 1 0 0 6.667 3.333 3.333 0 0 0 0-6.667z" fill="#111"/>
</svg>
