<svg width="16" height="16" viewBox="0 0 16 16" fill="none" xmlns="http://www.w3.org/2000/svg">
    <path d="M4.048 11.161c.816.101 2.35.26 3.939.26h.029a33.59 33.59 0 0 0 3.937-.26.692.692 0 0 0 .6-.692V7.29c0-2.552-2.032-4.622-4.537-4.622h-.03a4.493 4.493 0 0 0-3.21 1.354A4.653 4.653 0 0 0 3.447 7.29v3.18c0 .353.259.651.601.692zm3.988-6.59c0-.236.19-.429.423-.429h.033c1.556 0 2.817 1.284 2.817 2.867l.042 2.365a.643.643 0 0 1-.51.644c-.595.12-1.484.153-2.162.162a.625.625 0 0 1-.454-.184.652.652 0 0 1-.189-.461V4.57zM13.68 11.508h-.378a.36.36 0 0 0-.358.364.135.135 0 0 1-.102.13 9.118 9.118 0 0 1-.336.073c-1.097.22-2.708.358-4.506.358s-3.409-.14-4.506-.358c-.092-.019-.239-.05-.336-.073a.132.132 0 0 1-.102-.13.36.36 0 0 0-.358-.364h-.375a.278.278 0 0 0-.198.09.443.443 0 0 0-.125.315v.833c0 .233.13.446.335.549.816.408 3.033.701 5.65.705h.03c2.617-.006 4.834-.299 5.65-.705a.612.612 0 0 0 .335-.549v-.833c0-.13-.05-.241-.125-.316a.278.278 0 0 0-.197-.09h.001z" fill="#CCC"/>
</svg>
