<svg width="20" height="20" viewBox="0 0 20 20" fill="none" xmlns="http://www.w3.org/2000/svg">
    <path d="M12.433 9.25V4.583c0-1.383-1.116-2.5-2.5-2.5a2.483 2.483 0 0 0-2.466 2.208l4.966 4.959zM15 9.583a.699.699 0 0 0-.692.592c-.041.266-.1.533-.183.775l1.058 1.058c.25-.5.434-1.042.525-1.617A.714.714 0 0 0 15 9.583zm-11.975-6.2a.83.83 0 0 0 0 1.175l4.408 4.417v.358c0 .992.5 1.933 1.359 2.425a2.249 2.249 0 0 0 1.683.258l1.383 1.384a4.582 4.582 0 0 1-1.925.433c-2.116 0-4.066-1.475-4.375-3.658a.699.699 0 0 0-.691-.592.714.714 0 0 0-.709.808c.384 2.467 2.467 4.417 4.942 4.792v1.9c0 .458.375.833.833.833a.836.836 0 0 0 .834-.833v-1.9a5.94 5.94 0 0 0 2.125-.75l2.908 2.908a.83.83 0 1 0 1.175-1.175L4.2 3.383a.83.83 0 0 0-1.175 0z" fill="#111"/>
</svg>
